<svg width="41" height="41" viewBox="0 0 41 41" fill="none" xmlns="http://www.w3.org/2000/svg">
<g clip-path="url(#clip0_2978_12207)">
<path fill-rule="evenodd" clip-rule="evenodd" d="M37.4086 5.42132C37.4086 6.03028 37.2886 6.63328 37.0556 7.19588C36.8226 7.75848 36.481 8.26968 36.0504 8.70028C35.6198 9.13088 35.1086 9.47245 34.546 9.70548C33.9834 9.93852 33.3804 10.0585 32.7714 10.0585C32.1625 10.0585 31.5595 9.93852 30.9969 9.70548C30.4343 9.47245 29.9231 9.13088 29.4925 8.70028C29.0619 8.26968 28.7203 7.75848 28.4873 7.19588C28.2542 6.63328 28.1343 6.03028 28.1343 5.42132C28.1343 4.19148 28.6228 3.012 29.4925 2.14237C30.3621 1.27273 31.5416 0.78418 32.7714 0.78418C34.0013 0.78418 35.1808 1.27273 36.0504 2.14237C36.92 3.012 37.4086 4.19148 37.4086 5.42132ZM40.3343 19.8128C40.2278 20.2879 39.9626 20.7127 39.5825 21.017C39.2023 21.3214 38.7298 21.4871 38.2429 21.487H20.78C20.2117 21.487 19.6666 21.2613 19.2648 20.8594C18.8629 20.4575 18.6371 19.9125 18.6371 19.3442C18.6371 18.7759 18.8629 18.2308 19.2648 17.829C19.6666 17.4271 20.2117 17.2013 20.78 17.2013H25.34C25.8561 15.4119 27.0008 13.869 28.5636 12.8561C30.1264 11.8432 32.0023 11.4285 33.8464 11.6881C35.6905 11.9477 37.379 12.8643 38.6014 14.2693C39.8238 15.6743 40.498 17.4733 40.5 19.3356C40.4999 19.5087 40.4415 19.6768 40.3343 19.8128ZM4.38286 10.2813C4.38286 11.6536 4.928 12.9697 5.89837 13.9401C6.86874 14.9105 8.18484 15.4556 9.55714 15.4556C10.9294 15.4556 12.2455 14.9105 13.2159 13.9401C14.1863 12.9697 14.7314 11.6536 14.7314 10.2813C14.7314 8.90902 14.1863 7.59292 13.2159 6.62255C12.2455 5.65218 10.9294 5.10704 9.55714 5.10704C8.18484 5.10704 6.86874 5.65218 5.89837 6.62255C4.928 7.59292 4.38286 8.90902 4.38286 10.2813ZM0.5 26.5528C0.5 25.3634 0.73427 24.1856 1.18943 23.0867C1.6446 21.9879 2.31174 20.9894 3.15278 20.1484C3.99381 19.3074 4.99226 18.6402 6.09112 18.185C7.18999 17.7299 8.36774 17.4956 9.55714 17.4956C10.7465 17.4956 11.9243 17.7299 13.0232 18.185C14.122 18.6402 15.1205 19.3074 15.9615 20.1484C16.8025 20.9894 17.4697 21.9879 17.9249 23.0867C18.38 24.1856 18.6143 25.3634 18.6143 26.5528V29.0042C18.6143 29.3831 18.4638 29.7464 18.1959 30.0143C17.928 30.2822 17.5646 30.4328 17.1857 30.4328H14.7286L13.5914 39.5328C13.5483 39.8782 13.3804 40.196 13.1195 40.4264C12.8585 40.6569 12.5224 40.7841 12.1743 40.7842H6.93714C6.58901 40.7841 6.25289 40.6569 5.99194 40.4264C5.73099 40.196 5.56317 39.8782 5.52 39.5328L4.38 30.4328H1.92857C1.54969 30.4328 1.18633 30.2822 0.918419 30.0143C0.65051 29.7464 0.5 29.3831 0.5 29.0042V26.5528Z" fill="#004324"/>
</g>
<defs>
<clipPath id="clip0_2978_12207">
<rect width="40" height="40" fill="white" transform="translate(0.5 0.78418)"/>
</clipPath>
</defs>
</svg>
