<svg width="36" height="36" viewBox="0 0 36 36" fill="none" xmlns="http://www.w3.org/2000/svg">
<path fill-rule="evenodd" clip-rule="evenodd" d="M5.67497 28.6069C2.93414 25.5994 1.26747 21.6294 1.26747 17.2761C1.26747 7.88944 9.01497 0.280273 18.5716 0.280273C28.1283 0.280273 35.8758 7.89027 35.8758 17.2761C35.8758 23.9136 32.0008 29.6594 26.3533 32.4578C22.7768 34.3187 18.8033 35.2871 14.7716 35.2803C9.64497 35.2803 4.88164 33.7478 0.931641 31.1244C0.931641 31.1244 3.58081 30.8353 5.67331 28.6061L5.67497 28.6069ZM26.7 25.6886C31.1775 21.2128 31.1775 13.9553 26.7 9.47777C24.7089 7.48075 22.0492 6.2913 19.2333 6.13861C19.1516 4.09944 20.2491 2.72277 20.2541 2.71611V2.71527C17.023 3.33775 14.0535 4.91687 11.7308 7.24777C9.93635 9.0361 8.58013 11.2155 7.76831 13.6153C7.88331 13.3097 8.01192 13.0086 8.15414 12.7119C7.99136 13.1286 7.84331 13.5542 7.70997 13.9886C6.39914 17.9686 7.32414 22.5236 10.4891 25.6886C14.9658 30.1653 22.2233 30.1653 26.7 25.6886Z" fill="#004324"/>
<path fill-rule="evenodd" clip-rule="evenodd" d="M12.7754 16.4056V18.7781C12.7754 19.2327 12.956 19.6687 13.2775 19.9902C13.5989 20.3116 14.0349 20.4922 14.4896 20.4922C14.9442 20.4922 15.3802 20.3116 15.7017 19.9902C16.0231 19.6687 16.2037 19.2327 16.2037 18.7781V16.4056C16.2037 15.9509 16.0231 15.5149 15.7017 15.1935C15.3802 14.872 14.9442 14.6914 14.4896 14.6914C14.0349 14.6914 13.5989 14.872 13.2775 15.1935C12.956 15.5149 12.7754 15.9509 12.7754 16.4056ZM21.2612 16.4056V18.7781C21.2612 19.2327 21.4418 19.6687 21.7633 19.9902C22.0848 20.3116 22.5208 20.4922 22.9754 20.4922C23.43 20.4922 23.866 20.3116 24.1875 19.9902C24.509 19.6687 24.6896 19.2327 24.6896 18.7781V16.4056C24.6896 15.9509 24.509 15.5149 24.1875 15.1935C23.866 14.872 23.43 14.6914 22.9754 14.6914C22.5208 14.6914 22.0848 14.872 21.7633 15.1935C21.4418 15.5149 21.2612 15.9509 21.2612 16.4056Z" fill="#004324"/>
</svg>
