<svg width="54" height="55" viewBox="0 0 54 55" fill="none" xmlns="http://www.w3.org/2000/svg">
<path d="M26.9991 0.905273C12.1535 0.905273 0.119141 12.9397 0.119141 27.7853C0.119141 42.6309 12.1535 54.6653 26.9991 54.6653C41.8447 54.6653 53.8791 42.6309 53.8791 27.7853C53.8791 12.9397 41.8447 0.905273 26.9991 0.905273ZM20.4191 38.9265H14.9759V21.4097H20.4191V38.9265ZM17.6639 19.2593C15.9447 19.2593 14.8331 18.0413 14.8331 16.5349C14.8331 14.9977 15.9783 13.8161 17.7339 13.8161C19.4895 13.8161 20.5647 14.9977 20.5983 16.5349C20.5983 18.0413 19.4895 19.2593 17.6639 19.2593ZM40.2991 38.9265H34.8559V29.2189C34.8559 26.9593 34.0663 25.4249 32.0979 25.4249C30.5943 25.4249 29.7011 26.4637 29.3063 27.4633C29.1607 27.8189 29.1243 28.3229 29.1243 28.8241V38.9237H23.6783V26.9957C23.6783 24.8089 23.6083 22.9805 23.5355 21.4069H28.2647L28.5139 23.8401H28.6231C29.3399 22.6977 31.0955 21.0121 34.0327 21.0121C37.6139 21.0121 40.2991 23.4117 40.2991 28.5693V38.9265Z" fill="white"/>
</svg>
